<svg width="19" height="19" viewBox="0 0 19 19" fill="none" xmlns="http://www.w3.org/2000/svg">
<mask id="mask0_1_699" style="mask-type:alpha" maskUnits="userSpaceOnUse" x="0" y="0" width="19" height="19">
<rect width="19" height="19" fill="#D9D9D9"/>
</mask>
<g mask="url(#mask0_1_699)">
<path d="M8.70833 18.1687V16.5854C7.05903 16.4007 5.64392 15.7179 4.46302 14.537C3.28212 13.3561 2.5993 11.941 2.41458 10.2917H0.831249V8.70832H2.41458C2.5993 7.05902 3.28212 5.64391 4.46302 4.46301C5.64392 3.28211 7.05903 2.59929 8.70833 2.41457V0.831238H10.2917V2.41457C11.941 2.59929 13.3561 3.28211 14.537 4.46301C15.7179 5.64391 16.4007 7.05902 16.5854 8.70832H18.1687V10.2917H16.5854C16.4007 11.941 15.7179 13.3561 14.537 14.537C13.3561 15.7179 11.941 16.4007 10.2917 16.5854V18.1687H8.70833ZM9.5 15.0417C11.0306 15.0417 12.3368 14.5007 13.4187 13.4187C14.5007 12.3368 15.0417 11.0305 15.0417 9.49999C15.0417 7.96943 14.5007 6.66318 13.4187 5.58124C12.3368 4.49929 11.0306 3.95832 9.5 3.95832C7.96944 3.95832 6.66319 4.49929 5.58125 5.58124C4.4993 6.66318 3.95833 7.96943 3.95833 9.49999C3.95833 11.0305 4.4993 12.3368 5.58125 13.4187C6.66319 14.5007 7.96944 15.0417 9.5 15.0417ZM9.5 12.6667C8.62917 12.6667 7.88368 12.3566 7.26354 11.7364C6.6434 11.1163 6.33333 10.3708 6.33333 9.49999C6.33333 8.62915 6.6434 7.88367 7.26354 7.26353C7.88368 6.64339 8.62917 6.33332 9.5 6.33332C10.3708 6.33332 11.1163 6.64339 11.7365 7.26353C12.3566 7.88367 12.6667 8.62915 12.6667 9.49999C12.6667 10.3708 12.3566 11.1163 11.7365 11.7364C11.1163 12.3566 10.3708 12.6667 9.5 12.6667ZM9.5 11.0833C9.93542 11.0833 10.3082 10.9283 10.6182 10.6182C10.9283 10.3081 11.0833 9.9354 11.0833 9.49999C11.0833 9.06457 10.9283 8.69183 10.6182 8.38176C10.3082 8.07169 9.93542 7.91665 9.5 7.91665C9.06458 7.91665 8.69184 8.07169 8.38177 8.38176C8.0717 8.69183 7.91667 9.06457 7.91667 9.49999C7.91667 9.9354 8.0717 10.3081 8.38177 10.6182C8.69184 10.9283 9.06458 11.0833 9.5 11.0833Z" fill="#1C1B1F"/>
</g>
</svg>
